<mxfile host="app.diagrams.net" modified="2024-07-21T10:36:12.749Z" agent="Mozilla/5.0 (Windows NT 10.0; Win64; x64) AppleWebKit/537.36 (KHTML, like Gecko) Chrome/126.0.0.0 Safari/537.36" etag="uJCw5Gd_nrFclZslbF22" version="24.7.2" type="device">
  <diagram name="Page-1" id="5f0bae14-7c28-e335-631c-24af17079c00">
    <mxGraphModel dx="2759" dy="1431" grid="1" gridSize="10" guides="1" tooltips="1" connect="1" arrows="1" fold="1" page="1" pageScale="1" pageWidth="1100" pageHeight="850" background="none" math="0" shadow="0">
      <root>
        <mxCell id="0" />
        <mxCell id="1" parent="0" />
        <mxCell id="KeL7FeTLeQINifIP4qkp-154" value="" style="group" parent="1" vertex="1" connectable="0">
          <mxGeometry x="310" y="-799" width="760" height="1645" as="geometry" />
        </mxCell>
        <mxCell id="KeL7FeTLeQINifIP4qkp-153" value="" style="verticalAlign=top;align=left;spacingTop=8;spacingLeft=2;spacingRight=12;shape=cube;size=10;direction=south;fontStyle=4;html=1;whiteSpace=wrap;" parent="KeL7FeTLeQINifIP4qkp-154" vertex="1">
          <mxGeometry width="760" height="1560" as="geometry" />
        </mxCell>
        <mxCell id="KeL7FeTLeQINifIP4qkp-59" value="" style="group" parent="KeL7FeTLeQINifIP4qkp-154" vertex="1" connectable="0">
          <mxGeometry x="37.5" y="376" width="685" height="290" as="geometry" />
        </mxCell>
        <mxCell id="KeL7FeTLeQINifIP4qkp-60" value="Model" style="html=1;dropTarget=0;whiteSpace=wrap;points=[[0,0,0,0,0],[0,0.25,0,0,0],[0,0.5,0,0,0],[0,0.75,0,0,0],[0,1,0,0,0],[0.25,0,0,0,0],[0.25,1,0,0,0],[0.5,0,0,0,0],[0.5,1,0,0,0],[0.75,0,0,0,0],[0.75,1,0,0,0],[1,0,0,0,0],[1,0.25,0,0,0],[1,0.5,0,0,0],[1,0.75,0,0,0],[1,1,0,0,0]];" parent="KeL7FeTLeQINifIP4qkp-59" vertex="1">
          <mxGeometry x="15" width="670" height="290" as="geometry" />
        </mxCell>
        <mxCell id="KeL7FeTLeQINifIP4qkp-61" value="" style="shape=module;jettyWidth=8;jettyHeight=4;" parent="KeL7FeTLeQINifIP4qkp-60" vertex="1">
          <mxGeometry x="1" width="20" height="20" relative="1" as="geometry">
            <mxPoint x="-27" y="7" as="offset" />
          </mxGeometry>
        </mxCell>
        <mxCell id="KeL7FeTLeQINifIP4qkp-62" value="EventService" style="html=1;dropTarget=0;whiteSpace=wrap;fillColor=#FF99FF;" parent="KeL7FeTLeQINifIP4qkp-59" vertex="1">
          <mxGeometry x="335" y="120" width="170" height="40" as="geometry" />
        </mxCell>
        <mxCell id="KeL7FeTLeQINifIP4qkp-63" value="" style="shape=module;jettyWidth=8;jettyHeight=4;" parent="KeL7FeTLeQINifIP4qkp-62" vertex="1">
          <mxGeometry x="1" width="20" height="20" relative="1" as="geometry">
            <mxPoint x="-27" y="7" as="offset" />
          </mxGeometry>
        </mxCell>
        <mxCell id="KeL7FeTLeQINifIP4qkp-64" value="Eventi.json" style="shape=cylinder3;whiteSpace=wrap;html=1;boundedLbl=1;backgroundOutline=1;size=15;fillColor=#99FF33;" parent="KeL7FeTLeQINifIP4qkp-59" vertex="1">
          <mxGeometry x="547" y="110" width="90" height="60" as="geometry" />
        </mxCell>
        <mxCell id="KeL7FeTLeQINifIP4qkp-65" value="EventController" style="html=1;dropTarget=0;whiteSpace=wrap;fillColor=#CCFFFF;" parent="KeL7FeTLeQINifIP4qkp-59" vertex="1">
          <mxGeometry x="105" y="120" width="170" height="40" as="geometry" />
        </mxCell>
        <mxCell id="KeL7FeTLeQINifIP4qkp-66" value="" style="shape=module;jettyWidth=8;jettyHeight=4;" parent="KeL7FeTLeQINifIP4qkp-65" vertex="1">
          <mxGeometry x="1" width="20" height="20" relative="1" as="geometry">
            <mxPoint x="-27" y="7" as="offset" />
          </mxGeometry>
        </mxCell>
        <mxCell id="KeL7FeTLeQINifIP4qkp-67" value="" style="endArrow=none;html=1;rounded=0;entryX=0;entryY=0.5;entryDx=0;entryDy=0;entryPerimeter=0;exitX=1;exitY=0.5;exitDx=0;exitDy=0;" parent="KeL7FeTLeQINifIP4qkp-59" source="KeL7FeTLeQINifIP4qkp-62" target="KeL7FeTLeQINifIP4qkp-64" edge="1">
          <mxGeometry width="50" height="50" relative="1" as="geometry">
            <mxPoint x="415" y="100" as="sourcePoint" />
            <mxPoint x="465" y="50" as="targetPoint" />
          </mxGeometry>
        </mxCell>
        <mxCell id="KeL7FeTLeQINifIP4qkp-68" value="" style="rounded=0;orthogonalLoop=1;jettySize=auto;html=1;endArrow=halfCircle;endFill=0;endSize=6;strokeWidth=1;sketch=0;entryX=0.019;entryY=0.269;entryDx=0;entryDy=0;entryPerimeter=0;" parent="KeL7FeTLeQINifIP4qkp-59" source="KeL7FeTLeQINifIP4qkp-65" target="KeL7FeTLeQINifIP4qkp-70" edge="1">
          <mxGeometry relative="1" as="geometry">
            <mxPoint x="255" y="140" as="sourcePoint" />
            <mxPoint x="305" y="141" as="targetPoint" />
          </mxGeometry>
        </mxCell>
        <mxCell id="KeL7FeTLeQINifIP4qkp-69" value="" style="rounded=0;orthogonalLoop=1;jettySize=auto;html=1;endArrow=oval;endFill=0;sketch=0;sourcePerimeterSpacing=0;targetPerimeterSpacing=0;endSize=10;exitX=0;exitY=0.5;exitDx=0;exitDy=0;" parent="KeL7FeTLeQINifIP4qkp-59" source="KeL7FeTLeQINifIP4qkp-62" target="KeL7FeTLeQINifIP4qkp-70" edge="1">
          <mxGeometry relative="1" as="geometry">
            <mxPoint x="415" y="155" as="sourcePoint" />
          </mxGeometry>
        </mxCell>
        <mxCell id="KeL7FeTLeQINifIP4qkp-70" value="" style="ellipse;whiteSpace=wrap;html=1;align=center;aspect=fixed;fillColor=none;strokeColor=none;resizable=0;perimeter=centerPerimeter;rotatable=0;allowArrows=0;points=[];outlineConnect=1;" parent="KeL7FeTLeQINifIP4qkp-59" vertex="1">
          <mxGeometry x="305" y="135" width="10" height="10" as="geometry" />
        </mxCell>
        <mxCell id="KeL7FeTLeQINifIP4qkp-71" value="Model" style="html=1;dropTarget=0;whiteSpace=wrap;fillColor=#CCCCCC;" parent="KeL7FeTLeQINifIP4qkp-59" vertex="1">
          <mxGeometry x="335" y="235" width="170" height="40" as="geometry" />
        </mxCell>
        <mxCell id="KeL7FeTLeQINifIP4qkp-72" value="" style="shape=module;jettyWidth=8;jettyHeight=4;" parent="KeL7FeTLeQINifIP4qkp-71" vertex="1">
          <mxGeometry x="1" width="20" height="20" relative="1" as="geometry">
            <mxPoint x="-27" y="7" as="offset" />
          </mxGeometry>
        </mxCell>
        <mxCell id="KeL7FeTLeQINifIP4qkp-73" value="" style="rounded=0;orthogonalLoop=1;jettySize=auto;html=1;endArrow=oval;endFill=0;sketch=0;sourcePerimeterSpacing=0;targetPerimeterSpacing=0;endSize=10;exitX=0.5;exitY=0;exitDx=0;exitDy=0;" parent="KeL7FeTLeQINifIP4qkp-59" source="KeL7FeTLeQINifIP4qkp-71" edge="1">
          <mxGeometry relative="1" as="geometry">
            <mxPoint x="345" y="150" as="sourcePoint" />
            <mxPoint x="420" y="200" as="targetPoint" />
          </mxGeometry>
        </mxCell>
        <mxCell id="KeL7FeTLeQINifIP4qkp-74" value="" style="rounded=0;orthogonalLoop=1;jettySize=auto;html=1;endArrow=halfCircle;endFill=0;endSize=6;strokeWidth=1;sketch=0;exitX=0.5;exitY=1;exitDx=0;exitDy=0;" parent="KeL7FeTLeQINifIP4qkp-59" source="KeL7FeTLeQINifIP4qkp-62" edge="1">
          <mxGeometry relative="1" as="geometry">
            <mxPoint x="420" y="150" as="sourcePoint" />
            <mxPoint x="420" y="200" as="targetPoint" />
          </mxGeometry>
        </mxCell>
        <mxCell id="KeL7FeTLeQINifIP4qkp-75" value="AppConfig" style="html=1;dropTarget=0;whiteSpace=wrap;" parent="KeL7FeTLeQINifIP4qkp-59" vertex="1">
          <mxGeometry x="334.5" y="20" width="170" height="40" as="geometry" />
        </mxCell>
        <mxCell id="KeL7FeTLeQINifIP4qkp-76" value="" style="shape=module;jettyWidth=8;jettyHeight=4;" parent="KeL7FeTLeQINifIP4qkp-75" vertex="1">
          <mxGeometry x="1" width="20" height="20" relative="1" as="geometry">
            <mxPoint x="-27" y="7" as="offset" />
          </mxGeometry>
        </mxCell>
        <mxCell id="KeL7FeTLeQINifIP4qkp-77" value="" style="rounded=0;orthogonalLoop=1;jettySize=auto;html=1;endArrow=halfCircle;endFill=0;endSize=6;strokeWidth=1;sketch=0;" parent="KeL7FeTLeQINifIP4qkp-59" source="KeL7FeTLeQINifIP4qkp-62" edge="1">
          <mxGeometry relative="1" as="geometry">
            <mxPoint x="430" y="170" as="sourcePoint" />
            <mxPoint x="420" y="90" as="targetPoint" />
          </mxGeometry>
        </mxCell>
        <mxCell id="KeL7FeTLeQINifIP4qkp-78" value="" style="rounded=0;orthogonalLoop=1;jettySize=auto;html=1;endArrow=oval;endFill=0;sketch=0;sourcePerimeterSpacing=0;targetPerimeterSpacing=0;endSize=10;" parent="KeL7FeTLeQINifIP4qkp-59" source="KeL7FeTLeQINifIP4qkp-75" edge="1">
          <mxGeometry relative="1" as="geometry">
            <mxPoint x="430" y="250" as="sourcePoint" />
            <mxPoint x="420" y="90" as="targetPoint" />
          </mxGeometry>
        </mxCell>
        <mxCell id="KeL7FeTLeQINifIP4qkp-79" value="" style="whiteSpace=wrap;html=1;" parent="KeL7FeTLeQINifIP4qkp-59" vertex="1">
          <mxGeometry y="120" width="30" height="40" as="geometry" />
        </mxCell>
        <mxCell id="KeL7FeTLeQINifIP4qkp-80" value="" style="endArrow=open;endSize=12;dashed=1;html=1;rounded=0;" parent="KeL7FeTLeQINifIP4qkp-59" source="KeL7FeTLeQINifIP4qkp-79" target="KeL7FeTLeQINifIP4qkp-65" edge="1">
          <mxGeometry width="160" relative="1" as="geometry">
            <mxPoint x="205" y="60" as="sourcePoint" />
            <mxPoint x="365" y="60" as="targetPoint" />
          </mxGeometry>
        </mxCell>
        <mxCell id="KeL7FeTLeQINifIP4qkp-81" value="&amp;lt;&amp;lt;subsystem&amp;gt;&amp;gt;&lt;br&gt;Event" style="text;strokeColor=none;align=center;fillColor=none;html=1;verticalAlign=middle;whiteSpace=wrap;rounded=0;" parent="KeL7FeTLeQINifIP4qkp-59" vertex="1">
          <mxGeometry x="30" y="20" width="95" height="40" as="geometry" />
        </mxCell>
        <mxCell id="KeL7FeTLeQINifIP4qkp-82" value="" style="group" parent="KeL7FeTLeQINifIP4qkp-154" vertex="1" connectable="0">
          <mxGeometry x="37.5" y="703" width="685" height="290" as="geometry" />
        </mxCell>
        <mxCell id="KeL7FeTLeQINifIP4qkp-83" value="Model" style="html=1;dropTarget=0;whiteSpace=wrap;points=[[0,0,0,0,0],[0,0.25,0,0,0],[0,0.5,0,0,0],[0,0.75,0,0,0],[0,1,0,0,0],[0.25,0,0,0,0],[0.25,1,0,0,0],[0.5,0,0,0,0],[0.5,1,0,0,0],[0.75,0,0,0,0],[0.75,1,0,0,0],[1,0,0,0,0],[1,0.25,0,0,0],[1,0.5,0,0,0],[1,0.75,0,0,0],[1,1,0,0,0]];" parent="KeL7FeTLeQINifIP4qkp-82" vertex="1">
          <mxGeometry x="15" width="670" height="290" as="geometry" />
        </mxCell>
        <mxCell id="KeL7FeTLeQINifIP4qkp-84" value="" style="shape=module;jettyWidth=8;jettyHeight=4;" parent="KeL7FeTLeQINifIP4qkp-83" vertex="1">
          <mxGeometry x="1" width="20" height="20" relative="1" as="geometry">
            <mxPoint x="-27" y="7" as="offset" />
          </mxGeometry>
        </mxCell>
        <mxCell id="KeL7FeTLeQINifIP4qkp-85" value="HallService" style="html=1;dropTarget=0;whiteSpace=wrap;fillColor=#FF99FF;" parent="KeL7FeTLeQINifIP4qkp-82" vertex="1">
          <mxGeometry x="335" y="120" width="170" height="40" as="geometry" />
        </mxCell>
        <mxCell id="KeL7FeTLeQINifIP4qkp-86" value="" style="shape=module;jettyWidth=8;jettyHeight=4;" parent="KeL7FeTLeQINifIP4qkp-85" vertex="1">
          <mxGeometry x="1" width="20" height="20" relative="1" as="geometry">
            <mxPoint x="-27" y="7" as="offset" />
          </mxGeometry>
        </mxCell>
        <mxCell id="KeL7FeTLeQINifIP4qkp-87" value="Sale.json" style="shape=cylinder3;whiteSpace=wrap;html=1;boundedLbl=1;backgroundOutline=1;size=15;fillColor=#99FF33;" parent="KeL7FeTLeQINifIP4qkp-82" vertex="1">
          <mxGeometry x="547" y="110" width="90" height="60" as="geometry" />
        </mxCell>
        <mxCell id="KeL7FeTLeQINifIP4qkp-88" value="HallController" style="html=1;dropTarget=0;whiteSpace=wrap;fillColor=#CCFFFF;" parent="KeL7FeTLeQINifIP4qkp-82" vertex="1">
          <mxGeometry x="105" y="120" width="170" height="40" as="geometry" />
        </mxCell>
        <mxCell id="KeL7FeTLeQINifIP4qkp-89" value="" style="shape=module;jettyWidth=8;jettyHeight=4;" parent="KeL7FeTLeQINifIP4qkp-88" vertex="1">
          <mxGeometry x="1" width="20" height="20" relative="1" as="geometry">
            <mxPoint x="-27" y="7" as="offset" />
          </mxGeometry>
        </mxCell>
        <mxCell id="KeL7FeTLeQINifIP4qkp-90" value="" style="endArrow=none;html=1;rounded=0;entryX=0;entryY=0.5;entryDx=0;entryDy=0;entryPerimeter=0;exitX=1;exitY=0.5;exitDx=0;exitDy=0;" parent="KeL7FeTLeQINifIP4qkp-82" source="KeL7FeTLeQINifIP4qkp-85" target="KeL7FeTLeQINifIP4qkp-87" edge="1">
          <mxGeometry width="50" height="50" relative="1" as="geometry">
            <mxPoint x="415" y="100" as="sourcePoint" />
            <mxPoint x="465" y="50" as="targetPoint" />
          </mxGeometry>
        </mxCell>
        <mxCell id="KeL7FeTLeQINifIP4qkp-91" value="" style="rounded=0;orthogonalLoop=1;jettySize=auto;html=1;endArrow=halfCircle;endFill=0;endSize=6;strokeWidth=1;sketch=0;entryX=0.019;entryY=0.269;entryDx=0;entryDy=0;entryPerimeter=0;" parent="KeL7FeTLeQINifIP4qkp-82" source="KeL7FeTLeQINifIP4qkp-88" target="KeL7FeTLeQINifIP4qkp-93" edge="1">
          <mxGeometry relative="1" as="geometry">
            <mxPoint x="255" y="140" as="sourcePoint" />
            <mxPoint x="305" y="141" as="targetPoint" />
          </mxGeometry>
        </mxCell>
        <mxCell id="KeL7FeTLeQINifIP4qkp-92" value="" style="rounded=0;orthogonalLoop=1;jettySize=auto;html=1;endArrow=oval;endFill=0;sketch=0;sourcePerimeterSpacing=0;targetPerimeterSpacing=0;endSize=10;exitX=0;exitY=0.5;exitDx=0;exitDy=0;" parent="KeL7FeTLeQINifIP4qkp-82" source="KeL7FeTLeQINifIP4qkp-85" target="KeL7FeTLeQINifIP4qkp-93" edge="1">
          <mxGeometry relative="1" as="geometry">
            <mxPoint x="415" y="155" as="sourcePoint" />
          </mxGeometry>
        </mxCell>
        <mxCell id="KeL7FeTLeQINifIP4qkp-93" value="" style="ellipse;whiteSpace=wrap;html=1;align=center;aspect=fixed;fillColor=none;strokeColor=none;resizable=0;perimeter=centerPerimeter;rotatable=0;allowArrows=0;points=[];outlineConnect=1;" parent="KeL7FeTLeQINifIP4qkp-82" vertex="1">
          <mxGeometry x="305" y="135" width="10" height="10" as="geometry" />
        </mxCell>
        <mxCell id="KeL7FeTLeQINifIP4qkp-94" value="Model" style="html=1;dropTarget=0;whiteSpace=wrap;fillColor=#CCCCCC;" parent="KeL7FeTLeQINifIP4qkp-82" vertex="1">
          <mxGeometry x="335" y="235" width="170" height="40" as="geometry" />
        </mxCell>
        <mxCell id="KeL7FeTLeQINifIP4qkp-95" value="" style="shape=module;jettyWidth=8;jettyHeight=4;" parent="KeL7FeTLeQINifIP4qkp-94" vertex="1">
          <mxGeometry x="1" width="20" height="20" relative="1" as="geometry">
            <mxPoint x="-27" y="7" as="offset" />
          </mxGeometry>
        </mxCell>
        <mxCell id="KeL7FeTLeQINifIP4qkp-96" value="" style="rounded=0;orthogonalLoop=1;jettySize=auto;html=1;endArrow=oval;endFill=0;sketch=0;sourcePerimeterSpacing=0;targetPerimeterSpacing=0;endSize=10;exitX=0.5;exitY=0;exitDx=0;exitDy=0;" parent="KeL7FeTLeQINifIP4qkp-82" source="KeL7FeTLeQINifIP4qkp-94" edge="1">
          <mxGeometry relative="1" as="geometry">
            <mxPoint x="345" y="150" as="sourcePoint" />
            <mxPoint x="420" y="200" as="targetPoint" />
          </mxGeometry>
        </mxCell>
        <mxCell id="KeL7FeTLeQINifIP4qkp-97" value="" style="rounded=0;orthogonalLoop=1;jettySize=auto;html=1;endArrow=halfCircle;endFill=0;endSize=6;strokeWidth=1;sketch=0;exitX=0.5;exitY=1;exitDx=0;exitDy=0;" parent="KeL7FeTLeQINifIP4qkp-82" source="KeL7FeTLeQINifIP4qkp-85" edge="1">
          <mxGeometry relative="1" as="geometry">
            <mxPoint x="420" y="150" as="sourcePoint" />
            <mxPoint x="420" y="200" as="targetPoint" />
          </mxGeometry>
        </mxCell>
        <mxCell id="KeL7FeTLeQINifIP4qkp-98" value="AppConfig" style="html=1;dropTarget=0;whiteSpace=wrap;" parent="KeL7FeTLeQINifIP4qkp-82" vertex="1">
          <mxGeometry x="335" y="20" width="170" height="40" as="geometry" />
        </mxCell>
        <mxCell id="KeL7FeTLeQINifIP4qkp-99" value="" style="shape=module;jettyWidth=8;jettyHeight=4;" parent="KeL7FeTLeQINifIP4qkp-98" vertex="1">
          <mxGeometry x="1" width="20" height="20" relative="1" as="geometry">
            <mxPoint x="-27" y="7" as="offset" />
          </mxGeometry>
        </mxCell>
        <mxCell id="KeL7FeTLeQINifIP4qkp-100" value="" style="rounded=0;orthogonalLoop=1;jettySize=auto;html=1;endArrow=halfCircle;endFill=0;endSize=6;strokeWidth=1;sketch=0;" parent="KeL7FeTLeQINifIP4qkp-82" source="KeL7FeTLeQINifIP4qkp-85" edge="1">
          <mxGeometry relative="1" as="geometry">
            <mxPoint x="430" y="170" as="sourcePoint" />
            <mxPoint x="420" y="90" as="targetPoint" />
          </mxGeometry>
        </mxCell>
        <mxCell id="KeL7FeTLeQINifIP4qkp-101" value="" style="rounded=0;orthogonalLoop=1;jettySize=auto;html=1;endArrow=oval;endFill=0;sketch=0;sourcePerimeterSpacing=0;targetPerimeterSpacing=0;endSize=10;" parent="KeL7FeTLeQINifIP4qkp-82" source="KeL7FeTLeQINifIP4qkp-98" edge="1">
          <mxGeometry relative="1" as="geometry">
            <mxPoint x="430" y="250" as="sourcePoint" />
            <mxPoint x="420" y="90" as="targetPoint" />
          </mxGeometry>
        </mxCell>
        <mxCell id="KeL7FeTLeQINifIP4qkp-102" value="" style="whiteSpace=wrap;html=1;" parent="KeL7FeTLeQINifIP4qkp-82" vertex="1">
          <mxGeometry y="120" width="30" height="40" as="geometry" />
        </mxCell>
        <mxCell id="KeL7FeTLeQINifIP4qkp-103" value="" style="endArrow=open;endSize=12;dashed=1;html=1;rounded=0;" parent="KeL7FeTLeQINifIP4qkp-82" source="KeL7FeTLeQINifIP4qkp-102" target="KeL7FeTLeQINifIP4qkp-88" edge="1">
          <mxGeometry width="160" relative="1" as="geometry">
            <mxPoint x="205" y="60" as="sourcePoint" />
            <mxPoint x="365" y="60" as="targetPoint" />
          </mxGeometry>
        </mxCell>
        <mxCell id="KeL7FeTLeQINifIP4qkp-104" value="&amp;lt;&amp;lt;subsystem&amp;gt;&amp;gt;&lt;br&gt;Hall" style="text;strokeColor=none;align=center;fillColor=none;html=1;verticalAlign=middle;whiteSpace=wrap;rounded=0;" parent="KeL7FeTLeQINifIP4qkp-82" vertex="1">
          <mxGeometry x="30" y="20" width="95" height="40" as="geometry" />
        </mxCell>
        <mxCell id="KeL7FeTLeQINifIP4qkp-105" value="" style="group" parent="KeL7FeTLeQINifIP4qkp-154" vertex="1" connectable="0">
          <mxGeometry x="37.5" y="1029" width="685" height="290" as="geometry" />
        </mxCell>
        <mxCell id="KeL7FeTLeQINifIP4qkp-106" value="Model" style="html=1;dropTarget=0;whiteSpace=wrap;points=[[0,0,0,0,0],[0,0.25,0,0,0],[0,0.5,0,0,0],[0,0.75,0,0,0],[0,1,0,0,0],[0.25,0,0,0,0],[0.25,1,0,0,0],[0.5,0,0,0,0],[0.5,1,0,0,0],[0.75,0,0,0,0],[0.75,1,0,0,0],[1,0,0,0,0],[1,0.25,0,0,0],[1,0.5,0,0,0],[1,0.75,0,0,0],[1,1,0,0,0]];" parent="KeL7FeTLeQINifIP4qkp-105" vertex="1">
          <mxGeometry x="15" width="670" height="290" as="geometry" />
        </mxCell>
        <mxCell id="KeL7FeTLeQINifIP4qkp-107" value="" style="shape=module;jettyWidth=8;jettyHeight=4;" parent="KeL7FeTLeQINifIP4qkp-106" vertex="1">
          <mxGeometry x="1" width="20" height="20" relative="1" as="geometry">
            <mxPoint x="-27" y="7" as="offset" />
          </mxGeometry>
        </mxCell>
        <mxCell id="KeL7FeTLeQINifIP4qkp-108" value="RoomService" style="html=1;dropTarget=0;whiteSpace=wrap;fillColor=#FF99FF;" parent="KeL7FeTLeQINifIP4qkp-105" vertex="1">
          <mxGeometry x="335" y="120" width="170" height="40" as="geometry" />
        </mxCell>
        <mxCell id="KeL7FeTLeQINifIP4qkp-109" value="" style="shape=module;jettyWidth=8;jettyHeight=4;" parent="KeL7FeTLeQINifIP4qkp-108" vertex="1">
          <mxGeometry x="1" width="20" height="20" relative="1" as="geometry">
            <mxPoint x="-27" y="7" as="offset" />
          </mxGeometry>
        </mxCell>
        <mxCell id="KeL7FeTLeQINifIP4qkp-110" value="Camere.json" style="shape=cylinder3;whiteSpace=wrap;html=1;boundedLbl=1;backgroundOutline=1;size=15;fillColor=#99FF33;" parent="KeL7FeTLeQINifIP4qkp-105" vertex="1">
          <mxGeometry x="547" y="110" width="90" height="60" as="geometry" />
        </mxCell>
        <mxCell id="KeL7FeTLeQINifIP4qkp-111" value="RoomController" style="html=1;dropTarget=0;whiteSpace=wrap;fillColor=#CCFFFF;" parent="KeL7FeTLeQINifIP4qkp-105" vertex="1">
          <mxGeometry x="105" y="120" width="170" height="40" as="geometry" />
        </mxCell>
        <mxCell id="KeL7FeTLeQINifIP4qkp-112" value="" style="shape=module;jettyWidth=8;jettyHeight=4;" parent="KeL7FeTLeQINifIP4qkp-111" vertex="1">
          <mxGeometry x="1" width="20" height="20" relative="1" as="geometry">
            <mxPoint x="-27" y="7" as="offset" />
          </mxGeometry>
        </mxCell>
        <mxCell id="KeL7FeTLeQINifIP4qkp-113" value="" style="endArrow=none;html=1;rounded=0;entryX=0;entryY=0.5;entryDx=0;entryDy=0;entryPerimeter=0;exitX=1;exitY=0.5;exitDx=0;exitDy=0;" parent="KeL7FeTLeQINifIP4qkp-105" source="KeL7FeTLeQINifIP4qkp-108" target="KeL7FeTLeQINifIP4qkp-110" edge="1">
          <mxGeometry width="50" height="50" relative="1" as="geometry">
            <mxPoint x="415" y="100" as="sourcePoint" />
            <mxPoint x="465" y="50" as="targetPoint" />
          </mxGeometry>
        </mxCell>
        <mxCell id="KeL7FeTLeQINifIP4qkp-114" value="" style="rounded=0;orthogonalLoop=1;jettySize=auto;html=1;endArrow=halfCircle;endFill=0;endSize=6;strokeWidth=1;sketch=0;entryX=0.019;entryY=0.269;entryDx=0;entryDy=0;entryPerimeter=0;" parent="KeL7FeTLeQINifIP4qkp-105" source="KeL7FeTLeQINifIP4qkp-111" target="KeL7FeTLeQINifIP4qkp-116" edge="1">
          <mxGeometry relative="1" as="geometry">
            <mxPoint x="255" y="140" as="sourcePoint" />
            <mxPoint x="305" y="141" as="targetPoint" />
          </mxGeometry>
        </mxCell>
        <mxCell id="KeL7FeTLeQINifIP4qkp-115" value="" style="rounded=0;orthogonalLoop=1;jettySize=auto;html=1;endArrow=oval;endFill=0;sketch=0;sourcePerimeterSpacing=0;targetPerimeterSpacing=0;endSize=10;exitX=0;exitY=0.5;exitDx=0;exitDy=0;" parent="KeL7FeTLeQINifIP4qkp-105" source="KeL7FeTLeQINifIP4qkp-108" target="KeL7FeTLeQINifIP4qkp-116" edge="1">
          <mxGeometry relative="1" as="geometry">
            <mxPoint x="415" y="155" as="sourcePoint" />
          </mxGeometry>
        </mxCell>
        <mxCell id="KeL7FeTLeQINifIP4qkp-116" value="" style="ellipse;whiteSpace=wrap;html=1;align=center;aspect=fixed;fillColor=none;strokeColor=none;resizable=0;perimeter=centerPerimeter;rotatable=0;allowArrows=0;points=[];outlineConnect=1;" parent="KeL7FeTLeQINifIP4qkp-105" vertex="1">
          <mxGeometry x="305" y="135" width="10" height="10" as="geometry" />
        </mxCell>
        <mxCell id="KeL7FeTLeQINifIP4qkp-117" value="Model" style="html=1;dropTarget=0;whiteSpace=wrap;fillColor=#CCCCCC;" parent="KeL7FeTLeQINifIP4qkp-105" vertex="1">
          <mxGeometry x="335" y="235" width="170" height="40" as="geometry" />
        </mxCell>
        <mxCell id="KeL7FeTLeQINifIP4qkp-118" value="" style="shape=module;jettyWidth=8;jettyHeight=4;" parent="KeL7FeTLeQINifIP4qkp-117" vertex="1">
          <mxGeometry x="1" width="20" height="20" relative="1" as="geometry">
            <mxPoint x="-27" y="7" as="offset" />
          </mxGeometry>
        </mxCell>
        <mxCell id="KeL7FeTLeQINifIP4qkp-119" value="" style="rounded=0;orthogonalLoop=1;jettySize=auto;html=1;endArrow=oval;endFill=0;sketch=0;sourcePerimeterSpacing=0;targetPerimeterSpacing=0;endSize=10;exitX=0.5;exitY=0;exitDx=0;exitDy=0;" parent="KeL7FeTLeQINifIP4qkp-105" source="KeL7FeTLeQINifIP4qkp-117" edge="1">
          <mxGeometry relative="1" as="geometry">
            <mxPoint x="345" y="150" as="sourcePoint" />
            <mxPoint x="420" y="200" as="targetPoint" />
          </mxGeometry>
        </mxCell>
        <mxCell id="KeL7FeTLeQINifIP4qkp-120" value="" style="rounded=0;orthogonalLoop=1;jettySize=auto;html=1;endArrow=halfCircle;endFill=0;endSize=6;strokeWidth=1;sketch=0;exitX=0.5;exitY=1;exitDx=0;exitDy=0;" parent="KeL7FeTLeQINifIP4qkp-105" source="KeL7FeTLeQINifIP4qkp-108" edge="1">
          <mxGeometry relative="1" as="geometry">
            <mxPoint x="420" y="150" as="sourcePoint" />
            <mxPoint x="420" y="200" as="targetPoint" />
          </mxGeometry>
        </mxCell>
        <mxCell id="KeL7FeTLeQINifIP4qkp-121" value="AppConfig" style="html=1;dropTarget=0;whiteSpace=wrap;" parent="KeL7FeTLeQINifIP4qkp-105" vertex="1">
          <mxGeometry x="335" y="20" width="170" height="40" as="geometry" />
        </mxCell>
        <mxCell id="KeL7FeTLeQINifIP4qkp-122" value="" style="shape=module;jettyWidth=8;jettyHeight=4;" parent="KeL7FeTLeQINifIP4qkp-121" vertex="1">
          <mxGeometry x="1" width="20" height="20" relative="1" as="geometry">
            <mxPoint x="-27" y="7" as="offset" />
          </mxGeometry>
        </mxCell>
        <mxCell id="KeL7FeTLeQINifIP4qkp-123" value="" style="rounded=0;orthogonalLoop=1;jettySize=auto;html=1;endArrow=halfCircle;endFill=0;endSize=6;strokeWidth=1;sketch=0;" parent="KeL7FeTLeQINifIP4qkp-105" source="KeL7FeTLeQINifIP4qkp-108" edge="1">
          <mxGeometry relative="1" as="geometry">
            <mxPoint x="430" y="170" as="sourcePoint" />
            <mxPoint x="420" y="90" as="targetPoint" />
          </mxGeometry>
        </mxCell>
        <mxCell id="KeL7FeTLeQINifIP4qkp-124" value="" style="rounded=0;orthogonalLoop=1;jettySize=auto;html=1;endArrow=oval;endFill=0;sketch=0;sourcePerimeterSpacing=0;targetPerimeterSpacing=0;endSize=10;" parent="KeL7FeTLeQINifIP4qkp-105" source="KeL7FeTLeQINifIP4qkp-121" edge="1">
          <mxGeometry relative="1" as="geometry">
            <mxPoint x="430" y="250" as="sourcePoint" />
            <mxPoint x="420" y="90" as="targetPoint" />
          </mxGeometry>
        </mxCell>
        <mxCell id="KeL7FeTLeQINifIP4qkp-125" value="" style="whiteSpace=wrap;html=1;" parent="KeL7FeTLeQINifIP4qkp-105" vertex="1">
          <mxGeometry y="120" width="30" height="40" as="geometry" />
        </mxCell>
        <mxCell id="KeL7FeTLeQINifIP4qkp-126" value="" style="endArrow=open;endSize=12;dashed=1;html=1;rounded=0;" parent="KeL7FeTLeQINifIP4qkp-105" source="KeL7FeTLeQINifIP4qkp-125" target="KeL7FeTLeQINifIP4qkp-111" edge="1">
          <mxGeometry width="160" relative="1" as="geometry">
            <mxPoint x="205" y="60" as="sourcePoint" />
            <mxPoint x="365" y="60" as="targetPoint" />
          </mxGeometry>
        </mxCell>
        <mxCell id="KeL7FeTLeQINifIP4qkp-127" value="&amp;lt;&amp;lt;subsystem&amp;gt;&amp;gt;&lt;br&gt;Room" style="text;strokeColor=none;align=center;fillColor=none;html=1;verticalAlign=middle;whiteSpace=wrap;rounded=0;" parent="KeL7FeTLeQINifIP4qkp-105" vertex="1">
          <mxGeometry x="30" y="20" width="95" height="40" as="geometry" />
        </mxCell>
        <mxCell id="KeL7FeTLeQINifIP4qkp-128" value="" style="group" parent="KeL7FeTLeQINifIP4qkp-154" vertex="1" connectable="0">
          <mxGeometry x="37.5" y="1355" width="685" height="290" as="geometry" />
        </mxCell>
        <mxCell id="KeL7FeTLeQINifIP4qkp-129" value="" style="html=1;dropTarget=0;whiteSpace=wrap;points=[[0,0,0,0,0],[0,0.25,0,0,0],[0,0.5,0,0,0],[0,0.75,0,0,0],[0,1,0,0,0],[0.25,0,0,0,0],[0.25,1,0,0,0],[0.5,0,0,0,0],[0.5,1,0,0,0],[0.75,0,0,0,0],[0.75,1,0,0,0],[1,0,0,0,0],[1,0.25,0,0,0],[1,0.5,0,0,0],[1,0.75,0,0,0],[1,1,0,0,0]];" parent="KeL7FeTLeQINifIP4qkp-128" vertex="1">
          <mxGeometry x="15" width="670" height="150" as="geometry" />
        </mxCell>
        <mxCell id="KeL7FeTLeQINifIP4qkp-130" value="" style="shape=module;jettyWidth=8;jettyHeight=4;" parent="KeL7FeTLeQINifIP4qkp-129" vertex="1">
          <mxGeometry x="1" width="20" height="20" relative="1" as="geometry">
            <mxPoint x="-27" y="7" as="offset" />
          </mxGeometry>
        </mxCell>
        <mxCell id="KeL7FeTLeQINifIP4qkp-134" value="SystemController" style="html=1;dropTarget=0;whiteSpace=wrap;fillColor=#CCFFFF;" parent="KeL7FeTLeQINifIP4qkp-128" vertex="1">
          <mxGeometry x="116" y="55" width="170" height="40" as="geometry" />
        </mxCell>
        <mxCell id="KeL7FeTLeQINifIP4qkp-135" value="" style="shape=module;jettyWidth=8;jettyHeight=4;" parent="KeL7FeTLeQINifIP4qkp-134" vertex="1">
          <mxGeometry x="1" width="20" height="20" relative="1" as="geometry">
            <mxPoint x="-27" y="7" as="offset" />
          </mxGeometry>
        </mxCell>
        <mxCell id="KeL7FeTLeQINifIP4qkp-139" value="" style="ellipse;whiteSpace=wrap;html=1;align=center;aspect=fixed;fillColor=none;strokeColor=none;resizable=0;perimeter=centerPerimeter;rotatable=0;allowArrows=0;points=[];outlineConnect=1;" parent="KeL7FeTLeQINifIP4qkp-128" vertex="1">
          <mxGeometry x="305" y="135" width="10" height="10" as="geometry" />
        </mxCell>
        <mxCell id="KeL7FeTLeQINifIP4qkp-148" value="" style="whiteSpace=wrap;html=1;" parent="KeL7FeTLeQINifIP4qkp-128" vertex="1">
          <mxGeometry y="55" width="30" height="40" as="geometry" />
        </mxCell>
        <mxCell id="KeL7FeTLeQINifIP4qkp-149" value="" style="endArrow=open;endSize=12;dashed=1;html=1;rounded=0;" parent="KeL7FeTLeQINifIP4qkp-128" source="KeL7FeTLeQINifIP4qkp-148" target="KeL7FeTLeQINifIP4qkp-134" edge="1">
          <mxGeometry width="160" relative="1" as="geometry">
            <mxPoint x="205" y="60" as="sourcePoint" />
            <mxPoint x="365" y="60" as="targetPoint" />
          </mxGeometry>
        </mxCell>
        <mxCell id="KeL7FeTLeQINifIP4qkp-150" value="&amp;lt;&amp;lt;subsystem&amp;gt;&amp;gt;&lt;br&gt;System" style="text;strokeColor=none;align=center;fillColor=none;html=1;verticalAlign=middle;whiteSpace=wrap;rounded=0;" parent="KeL7FeTLeQINifIP4qkp-128" vertex="1">
          <mxGeometry x="30" y="15" width="95" height="40" as="geometry" />
        </mxCell>
        <mxCell id="-G7ro0YwcqrA3VUqy3-W-115" value="" style="group" vertex="1" connectable="0" parent="KeL7FeTLeQINifIP4qkp-154">
          <mxGeometry x="37.5" y="45" width="685" height="290" as="geometry" />
        </mxCell>
        <mxCell id="-G7ro0YwcqrA3VUqy3-W-116" value="Model" style="html=1;dropTarget=0;whiteSpace=wrap;points=[[0,0,0,0,0],[0,0.25,0,0,0],[0,0.5,0,0,0],[0,0.75,0,0,0],[0,1,0,0,0],[0.25,0,0,0,0],[0.25,1,0,0,0],[0.5,0,0,0,0],[0.5,1,0,0,0],[0.75,0,0,0,0],[0.75,1,0,0,0],[1,0,0,0,0],[1,0.25,0,0,0],[1,0.5,0,0,0],[1,0.75,0,0,0],[1,1,0,0,0]];" vertex="1" parent="-G7ro0YwcqrA3VUqy3-W-115">
          <mxGeometry x="15" width="670" height="290" as="geometry" />
        </mxCell>
        <mxCell id="-G7ro0YwcqrA3VUqy3-W-117" value="" style="shape=module;jettyWidth=8;jettyHeight=4;" vertex="1" parent="-G7ro0YwcqrA3VUqy3-W-116">
          <mxGeometry x="1" width="20" height="20" relative="1" as="geometry">
            <mxPoint x="-27" y="7" as="offset" />
          </mxGeometry>
        </mxCell>
        <mxCell id="-G7ro0YwcqrA3VUqy3-W-118" value="CalendarService" style="html=1;dropTarget=0;whiteSpace=wrap;fillColor=#FF99FF;" vertex="1" parent="-G7ro0YwcqrA3VUqy3-W-115">
          <mxGeometry x="335" y="120" width="170" height="40" as="geometry" />
        </mxCell>
        <mxCell id="-G7ro0YwcqrA3VUqy3-W-119" value="" style="shape=module;jettyWidth=8;jettyHeight=4;" vertex="1" parent="-G7ro0YwcqrA3VUqy3-W-118">
          <mxGeometry x="1" width="20" height="20" relative="1" as="geometry">
            <mxPoint x="-27" y="7" as="offset" />
          </mxGeometry>
        </mxCell>
        <mxCell id="-G7ro0YwcqrA3VUqy3-W-120" value="Calendario.json" style="shape=cylinder3;whiteSpace=wrap;html=1;boundedLbl=1;backgroundOutline=1;size=15;fillColor=#99FF33;" vertex="1" parent="-G7ro0YwcqrA3VUqy3-W-115">
          <mxGeometry x="547" y="110" width="90" height="60" as="geometry" />
        </mxCell>
        <mxCell id="-G7ro0YwcqrA3VUqy3-W-121" value="CalendarController" style="html=1;dropTarget=0;whiteSpace=wrap;fillColor=#CCFFFF;" vertex="1" parent="-G7ro0YwcqrA3VUqy3-W-115">
          <mxGeometry x="105" y="120" width="170" height="40" as="geometry" />
        </mxCell>
        <mxCell id="-G7ro0YwcqrA3VUqy3-W-122" value="" style="shape=module;jettyWidth=8;jettyHeight=4;" vertex="1" parent="-G7ro0YwcqrA3VUqy3-W-121">
          <mxGeometry x="1" width="20" height="20" relative="1" as="geometry">
            <mxPoint x="-27" y="7" as="offset" />
          </mxGeometry>
        </mxCell>
        <mxCell id="-G7ro0YwcqrA3VUqy3-W-123" value="" style="endArrow=none;html=1;rounded=0;entryX=0;entryY=0.5;entryDx=0;entryDy=0;entryPerimeter=0;exitX=1;exitY=0.5;exitDx=0;exitDy=0;" edge="1" parent="-G7ro0YwcqrA3VUqy3-W-115" source="-G7ro0YwcqrA3VUqy3-W-118" target="-G7ro0YwcqrA3VUqy3-W-120">
          <mxGeometry width="50" height="50" relative="1" as="geometry">
            <mxPoint x="415" y="100" as="sourcePoint" />
            <mxPoint x="465" y="50" as="targetPoint" />
          </mxGeometry>
        </mxCell>
        <mxCell id="-G7ro0YwcqrA3VUqy3-W-124" value="" style="rounded=0;orthogonalLoop=1;jettySize=auto;html=1;endArrow=halfCircle;endFill=0;endSize=6;strokeWidth=1;sketch=0;entryX=0.019;entryY=0.269;entryDx=0;entryDy=0;entryPerimeter=0;" edge="1" parent="-G7ro0YwcqrA3VUqy3-W-115" source="-G7ro0YwcqrA3VUqy3-W-121" target="-G7ro0YwcqrA3VUqy3-W-126">
          <mxGeometry relative="1" as="geometry">
            <mxPoint x="255" y="140" as="sourcePoint" />
            <mxPoint x="305" y="141" as="targetPoint" />
          </mxGeometry>
        </mxCell>
        <mxCell id="-G7ro0YwcqrA3VUqy3-W-125" value="" style="rounded=0;orthogonalLoop=1;jettySize=auto;html=1;endArrow=oval;endFill=0;sketch=0;sourcePerimeterSpacing=0;targetPerimeterSpacing=0;endSize=10;exitX=0;exitY=0.5;exitDx=0;exitDy=0;" edge="1" parent="-G7ro0YwcqrA3VUqy3-W-115" source="-G7ro0YwcqrA3VUqy3-W-118" target="-G7ro0YwcqrA3VUqy3-W-126">
          <mxGeometry relative="1" as="geometry">
            <mxPoint x="415" y="155" as="sourcePoint" />
          </mxGeometry>
        </mxCell>
        <mxCell id="-G7ro0YwcqrA3VUqy3-W-126" value="" style="ellipse;whiteSpace=wrap;html=1;align=center;aspect=fixed;fillColor=none;strokeColor=none;resizable=0;perimeter=centerPerimeter;rotatable=0;allowArrows=0;points=[];outlineConnect=1;" vertex="1" parent="-G7ro0YwcqrA3VUqy3-W-115">
          <mxGeometry x="305" y="135" width="10" height="10" as="geometry" />
        </mxCell>
        <mxCell id="-G7ro0YwcqrA3VUqy3-W-127" value="Model" style="html=1;dropTarget=0;whiteSpace=wrap;fillColor=#CCCCCC;" vertex="1" parent="-G7ro0YwcqrA3VUqy3-W-115">
          <mxGeometry x="335" y="235" width="170" height="40" as="geometry" />
        </mxCell>
        <mxCell id="-G7ro0YwcqrA3VUqy3-W-128" value="" style="shape=module;jettyWidth=8;jettyHeight=4;" vertex="1" parent="-G7ro0YwcqrA3VUqy3-W-127">
          <mxGeometry x="1" width="20" height="20" relative="1" as="geometry">
            <mxPoint x="-27" y="7" as="offset" />
          </mxGeometry>
        </mxCell>
        <mxCell id="-G7ro0YwcqrA3VUqy3-W-129" value="" style="rounded=0;orthogonalLoop=1;jettySize=auto;html=1;endArrow=oval;endFill=0;sketch=0;sourcePerimeterSpacing=0;targetPerimeterSpacing=0;endSize=10;exitX=0.5;exitY=0;exitDx=0;exitDy=0;" edge="1" parent="-G7ro0YwcqrA3VUqy3-W-115" source="-G7ro0YwcqrA3VUqy3-W-127">
          <mxGeometry relative="1" as="geometry">
            <mxPoint x="345" y="150" as="sourcePoint" />
            <mxPoint x="420" y="200" as="targetPoint" />
          </mxGeometry>
        </mxCell>
        <mxCell id="-G7ro0YwcqrA3VUqy3-W-130" value="" style="rounded=0;orthogonalLoop=1;jettySize=auto;html=1;endArrow=halfCircle;endFill=0;endSize=6;strokeWidth=1;sketch=0;exitX=0.5;exitY=1;exitDx=0;exitDy=0;" edge="1" parent="-G7ro0YwcqrA3VUqy3-W-115" source="-G7ro0YwcqrA3VUqy3-W-118">
          <mxGeometry relative="1" as="geometry">
            <mxPoint x="420" y="150" as="sourcePoint" />
            <mxPoint x="420" y="200" as="targetPoint" />
          </mxGeometry>
        </mxCell>
        <mxCell id="-G7ro0YwcqrA3VUqy3-W-131" value="AppConfig" style="html=1;dropTarget=0;whiteSpace=wrap;" vertex="1" parent="-G7ro0YwcqrA3VUqy3-W-115">
          <mxGeometry x="334.5" y="20" width="170" height="40" as="geometry" />
        </mxCell>
        <mxCell id="-G7ro0YwcqrA3VUqy3-W-132" value="" style="shape=module;jettyWidth=8;jettyHeight=4;" vertex="1" parent="-G7ro0YwcqrA3VUqy3-W-131">
          <mxGeometry x="1" width="20" height="20" relative="1" as="geometry">
            <mxPoint x="-27" y="7" as="offset" />
          </mxGeometry>
        </mxCell>
        <mxCell id="-G7ro0YwcqrA3VUqy3-W-133" value="" style="rounded=0;orthogonalLoop=1;jettySize=auto;html=1;endArrow=halfCircle;endFill=0;endSize=6;strokeWidth=1;sketch=0;" edge="1" parent="-G7ro0YwcqrA3VUqy3-W-115" source="-G7ro0YwcqrA3VUqy3-W-118">
          <mxGeometry relative="1" as="geometry">
            <mxPoint x="430" y="170" as="sourcePoint" />
            <mxPoint x="420" y="90" as="targetPoint" />
          </mxGeometry>
        </mxCell>
        <mxCell id="-G7ro0YwcqrA3VUqy3-W-134" value="" style="rounded=0;orthogonalLoop=1;jettySize=auto;html=1;endArrow=oval;endFill=0;sketch=0;sourcePerimeterSpacing=0;targetPerimeterSpacing=0;endSize=10;" edge="1" parent="-G7ro0YwcqrA3VUqy3-W-115" source="-G7ro0YwcqrA3VUqy3-W-131">
          <mxGeometry relative="1" as="geometry">
            <mxPoint x="430" y="250" as="sourcePoint" />
            <mxPoint x="420" y="90" as="targetPoint" />
          </mxGeometry>
        </mxCell>
        <mxCell id="-G7ro0YwcqrA3VUqy3-W-135" value="" style="whiteSpace=wrap;html=1;" vertex="1" parent="-G7ro0YwcqrA3VUqy3-W-115">
          <mxGeometry y="120" width="30" height="40" as="geometry" />
        </mxCell>
        <mxCell id="-G7ro0YwcqrA3VUqy3-W-136" value="" style="endArrow=open;endSize=12;dashed=1;html=1;rounded=0;" edge="1" parent="-G7ro0YwcqrA3VUqy3-W-115" source="-G7ro0YwcqrA3VUqy3-W-135" target="-G7ro0YwcqrA3VUqy3-W-121">
          <mxGeometry width="160" relative="1" as="geometry">
            <mxPoint x="205" y="60" as="sourcePoint" />
            <mxPoint x="365" y="60" as="targetPoint" />
          </mxGeometry>
        </mxCell>
        <mxCell id="-G7ro0YwcqrA3VUqy3-W-137" value="&amp;lt;&amp;lt;subsystem&amp;gt;&amp;gt;&lt;br&gt;Calendar" style="text;strokeColor=none;align=center;fillColor=none;html=1;verticalAlign=middle;whiteSpace=wrap;rounded=0;" vertex="1" parent="-G7ro0YwcqrA3VUqy3-W-115">
          <mxGeometry x="30" y="20" width="95" height="40" as="geometry" />
        </mxCell>
        <mxCell id="-G7ro0YwcqrA3VUqy3-W-156" value="SERVER" style="text;strokeColor=none;align=center;fillColor=none;html=1;verticalAlign=middle;whiteSpace=wrap;rounded=0;" vertex="1" parent="KeL7FeTLeQINifIP4qkp-154">
          <mxGeometry x="9" y="13" width="60" height="30" as="geometry" />
        </mxCell>
        <mxCell id="KeL7FeTLeQINifIP4qkp-560" value="Internet" style="image;html=1;labelBackgroundColor=#ffffff;image=img/lib/clip_art/networking/Cloud_128x128.png;rounded=1;shadow=0;comic=0;strokeWidth=2;fontSize=22;labelPosition=center;verticalLabelPosition=top;align=center;verticalAlign=bottom;" parent="1" vertex="1">
          <mxGeometry x="130" y="-300" width="80" height="80" as="geometry" />
        </mxCell>
        <mxCell id="KeL7FeTLeQINifIP4qkp-565" value="" style="endArrow=open;endSize=12;dashed=1;html=1;rounded=0;exitX=0.978;exitY=0.149;exitDx=0;exitDy=0;exitPerimeter=0;entryX=0;entryY=0.5;entryDx=0;entryDy=0;" parent="1" source="KeL7FeTLeQINifIP4qkp-560" edge="1">
          <mxGeometry x="0.0029" width="160" relative="1" as="geometry">
            <mxPoint x="14" y="-450" as="sourcePoint" />
            <mxPoint x="347.5" y="-605" as="targetPoint" />
            <mxPoint as="offset" />
          </mxGeometry>
        </mxCell>
        <mxCell id="KeL7FeTLeQINifIP4qkp-566" value="" style="endArrow=open;endSize=12;dashed=1;html=1;rounded=0;entryX=0;entryY=0.5;entryDx=0;entryDy=0;exitX=1;exitY=0.5;exitDx=0;exitDy=0;" parent="1" source="KeL7FeTLeQINifIP4qkp-560" target="KeL7FeTLeQINifIP4qkp-79" edge="1">
          <mxGeometry x="0.0029" width="160" relative="1" as="geometry">
            <mxPoint x="24" y="-440" as="sourcePoint" />
            <mxPoint x="186" y="-250" as="targetPoint" />
            <mxPoint as="offset" />
          </mxGeometry>
        </mxCell>
        <mxCell id="KeL7FeTLeQINifIP4qkp-567" value="" style="endArrow=open;endSize=12;dashed=1;html=1;rounded=0;entryX=0;entryY=0.5;entryDx=0;entryDy=0;exitX=1;exitY=1;exitDx=0;exitDy=0;" parent="1" source="KeL7FeTLeQINifIP4qkp-560" target="KeL7FeTLeQINifIP4qkp-102" edge="1">
          <mxGeometry x="0.0029" width="160" relative="1" as="geometry">
            <mxPoint x="220" y="-250" as="sourcePoint" />
            <mxPoint x="358" y="-269" as="targetPoint" />
            <mxPoint as="offset" />
          </mxGeometry>
        </mxCell>
        <mxCell id="KeL7FeTLeQINifIP4qkp-570" value="" style="endArrow=open;endSize=12;dashed=1;html=1;rounded=0;exitX=0.75;exitY=1;exitDx=0;exitDy=0;entryX=0;entryY=0.25;entryDx=0;entryDy=0;" parent="1" source="KeL7FeTLeQINifIP4qkp-560" target="KeL7FeTLeQINifIP4qkp-125" edge="1">
          <mxGeometry x="0.0029" width="160" relative="1" as="geometry">
            <mxPoint x="230" y="-240" as="sourcePoint" />
            <mxPoint x="260" y="210" as="targetPoint" />
            <mxPoint as="offset" />
          </mxGeometry>
        </mxCell>
        <mxCell id="KeL7FeTLeQINifIP4qkp-571" value="" style="endArrow=open;endSize=12;dashed=1;html=1;rounded=0;exitX=0.5;exitY=1;exitDx=0;exitDy=0;entryX=0;entryY=0.25;entryDx=0;entryDy=0;" parent="1" source="KeL7FeTLeQINifIP4qkp-560" target="KeL7FeTLeQINifIP4qkp-148" edge="1">
          <mxGeometry x="0.0029" width="160" relative="1" as="geometry">
            <mxPoint x="200" y="-210" as="sourcePoint" />
            <mxPoint x="358" y="374" as="targetPoint" />
            <mxPoint as="offset" />
          </mxGeometry>
        </mxCell>
        <mxCell id="KeL7FeTLeQINifIP4qkp-558" value="" style="verticalAlign=top;align=left;spacingTop=8;spacingLeft=2;spacingRight=12;shape=cube;size=10;direction=south;fontStyle=4;html=1;whiteSpace=wrap;" parent="1" vertex="1">
          <mxGeometry x="-380" y="-700" width="390" height="1180" as="geometry" />
        </mxCell>
        <mxCell id="KeL7FeTLeQINifIP4qkp-501" value="" style="group" parent="1" vertex="1" connectable="0">
          <mxGeometry x="-340" y="-344" width="314" height="290" as="geometry" />
        </mxCell>
        <mxCell id="KeL7FeTLeQINifIP4qkp-502" value="" style="html=1;dropTarget=0;whiteSpace=wrap;fillColor=#FFFFCC;" parent="KeL7FeTLeQINifIP4qkp-501" vertex="1">
          <mxGeometry width="300" height="290" as="geometry" />
        </mxCell>
        <mxCell id="KeL7FeTLeQINifIP4qkp-503" value="" style="shape=module;jettyWidth=8;jettyHeight=4;" parent="KeL7FeTLeQINifIP4qkp-502" vertex="1">
          <mxGeometry x="1" width="20" height="20" relative="1" as="geometry">
            <mxPoint x="-27" y="7" as="offset" />
          </mxGeometry>
        </mxCell>
        <mxCell id="KeL7FeTLeQINifIP4qkp-504" value="&amp;lt;&amp;lt;subsystem&amp;gt;&amp;gt;&lt;br&gt;WRoom" style="text;strokeColor=none;align=center;fillColor=none;html=1;verticalAlign=middle;whiteSpace=wrap;rounded=0;" parent="KeL7FeTLeQINifIP4qkp-501" vertex="1">
          <mxGeometry x="11" y="6" width="95" height="40" as="geometry" />
        </mxCell>
        <mxCell id="KeL7FeTLeQINifIP4qkp-505" value="WResourceRest" style="html=1;dropTarget=0;whiteSpace=wrap;fillColor=#CCFFFF;" parent="KeL7FeTLeQINifIP4qkp-501" vertex="1">
          <mxGeometry x="40" y="122" width="170" height="40" as="geometry" />
        </mxCell>
        <mxCell id="KeL7FeTLeQINifIP4qkp-506" value="" style="shape=module;jettyWidth=8;jettyHeight=4;" parent="KeL7FeTLeQINifIP4qkp-505" vertex="1">
          <mxGeometry x="1" width="20" height="20" relative="1" as="geometry">
            <mxPoint x="-27" y="7" as="offset" />
          </mxGeometry>
        </mxCell>
        <mxCell id="KeL7FeTLeQINifIP4qkp-507" value="WResourceClick" style="html=1;dropTarget=0;whiteSpace=wrap;fillColor=#CCCC00;" parent="KeL7FeTLeQINifIP4qkp-501" vertex="1">
          <mxGeometry x="40" y="75" width="170" height="40" as="geometry" />
        </mxCell>
        <mxCell id="KeL7FeTLeQINifIP4qkp-508" value="" style="shape=module;jettyWidth=8;jettyHeight=4;" parent="KeL7FeTLeQINifIP4qkp-507" vertex="1">
          <mxGeometry x="1" width="20" height="20" relative="1" as="geometry">
            <mxPoint x="-27" y="7" as="offset" />
          </mxGeometry>
        </mxCell>
        <mxCell id="KeL7FeTLeQINifIP4qkp-509" value="" style="whiteSpace=wrap;html=1;" parent="KeL7FeTLeQINifIP4qkp-501" vertex="1">
          <mxGeometry x="284" y="122" width="30" height="40" as="geometry" />
        </mxCell>
        <mxCell id="KeL7FeTLeQINifIP4qkp-510" value="" style="endArrow=open;endSize=12;dashed=1;html=1;rounded=0;" parent="KeL7FeTLeQINifIP4qkp-501" edge="1">
          <mxGeometry width="160" relative="1" as="geometry">
            <mxPoint x="209" y="141.5" as="sourcePoint" />
            <mxPoint x="284" y="141.5" as="targetPoint" />
          </mxGeometry>
        </mxCell>
        <mxCell id="-G7ro0YwcqrA3VUqy3-W-139" value="" style="group" vertex="1" connectable="0" parent="KeL7FeTLeQINifIP4qkp-501">
          <mxGeometry x="42" y="161" width="170" height="103" as="geometry" />
        </mxCell>
        <mxCell id="-G7ro0YwcqrA3VUqy3-W-140" value="AppConfig" style="html=1;dropTarget=0;whiteSpace=wrap;" vertex="1" parent="-G7ro0YwcqrA3VUqy3-W-139">
          <mxGeometry y="63" width="170" height="40" as="geometry" />
        </mxCell>
        <mxCell id="-G7ro0YwcqrA3VUqy3-W-141" value="" style="shape=module;jettyWidth=8;jettyHeight=4;" vertex="1" parent="-G7ro0YwcqrA3VUqy3-W-140">
          <mxGeometry x="1" width="20" height="20" relative="1" as="geometry">
            <mxPoint x="-27" y="7" as="offset" />
          </mxGeometry>
        </mxCell>
        <mxCell id="-G7ro0YwcqrA3VUqy3-W-142" value="" style="rounded=0;orthogonalLoop=1;jettySize=auto;html=1;endArrow=oval;endFill=0;sketch=0;sourcePerimeterSpacing=0;targetPerimeterSpacing=0;endSize=10;exitX=0.5;exitY=0;exitDx=0;exitDy=0;" edge="1" parent="-G7ro0YwcqrA3VUqy3-W-139" source="-G7ro0YwcqrA3VUqy3-W-140">
          <mxGeometry relative="1" as="geometry">
            <mxPoint x="84.5" y="73" as="sourcePoint" />
            <mxPoint x="84.5" y="38" as="targetPoint" />
          </mxGeometry>
        </mxCell>
        <mxCell id="-G7ro0YwcqrA3VUqy3-W-143" value="" style="rounded=0;orthogonalLoop=1;jettySize=auto;html=1;endArrow=halfCircle;endFill=0;endSize=6;strokeWidth=1;sketch=0;exitX=0.5;exitY=1;exitDx=0;exitDy=0;" edge="1" parent="-G7ro0YwcqrA3VUqy3-W-139">
          <mxGeometry relative="1" as="geometry">
            <mxPoint x="84.5" as="sourcePoint" />
            <mxPoint x="85" y="38" as="targetPoint" />
            <Array as="points">
              <mxPoint x="84.5" />
            </Array>
          </mxGeometry>
        </mxCell>
        <mxCell id="KeL7FeTLeQINifIP4qkp-536" value="" style="group" parent="1" vertex="1" connectable="0">
          <mxGeometry x="-340" y="313" width="314" height="120" as="geometry" />
        </mxCell>
        <mxCell id="KeL7FeTLeQINifIP4qkp-526" value="" style="html=1;dropTarget=0;whiteSpace=wrap;fillColor=#FFFFCC;" parent="KeL7FeTLeQINifIP4qkp-536" vertex="1">
          <mxGeometry width="300" height="120" as="geometry" />
        </mxCell>
        <mxCell id="KeL7FeTLeQINifIP4qkp-527" value="" style="shape=module;jettyWidth=8;jettyHeight=4;" parent="KeL7FeTLeQINifIP4qkp-526" vertex="1">
          <mxGeometry x="1" width="20" height="20" relative="1" as="geometry">
            <mxPoint x="-27" y="7" as="offset" />
          </mxGeometry>
        </mxCell>
        <mxCell id="KeL7FeTLeQINifIP4qkp-528" value="&amp;lt;&amp;lt;subsystem&amp;gt;&amp;gt;&lt;br&gt;ButtonArresto" style="text;strokeColor=none;align=center;fillColor=none;html=1;verticalAlign=middle;whiteSpace=wrap;rounded=0;" parent="KeL7FeTLeQINifIP4qkp-536" vertex="1">
          <mxGeometry x="11" width="95" height="40" as="geometry" />
        </mxCell>
        <mxCell id="KeL7FeTLeQINifIP4qkp-533" value="" style="whiteSpace=wrap;html=1;" parent="KeL7FeTLeQINifIP4qkp-536" vertex="1">
          <mxGeometry x="284" y="52" width="30" height="40" as="geometry" />
        </mxCell>
        <mxCell id="KeL7FeTLeQINifIP4qkp-283" value="&amp;lt;&amp;lt;subsystem&amp;gt;&amp;gt;&lt;br&gt;WCalendar" style="text;strokeColor=none;align=center;fillColor=none;html=1;verticalAlign=middle;whiteSpace=wrap;rounded=0;" parent="1" vertex="1">
          <mxGeometry x="-329" y="-644" width="95" height="40" as="geometry" />
        </mxCell>
        <mxCell id="-G7ro0YwcqrA3VUqy3-W-152" value="" style="group" vertex="1" connectable="0" parent="1">
          <mxGeometry x="-340" y="-36" width="314" height="330" as="geometry" />
        </mxCell>
        <mxCell id="KeL7FeTLeQINifIP4qkp-545" value="" style="html=1;dropTarget=0;whiteSpace=wrap;fillColor=#FFFFCC;" parent="-G7ro0YwcqrA3VUqy3-W-152" vertex="1">
          <mxGeometry width="300" height="330" as="geometry" />
        </mxCell>
        <mxCell id="KeL7FeTLeQINifIP4qkp-546" value="" style="shape=module;jettyWidth=8;jettyHeight=4;" parent="KeL7FeTLeQINifIP4qkp-545" vertex="1">
          <mxGeometry x="1" width="20" height="20" relative="1" as="geometry">
            <mxPoint x="-27" y="7" as="offset" />
          </mxGeometry>
        </mxCell>
        <mxCell id="-G7ro0YwcqrA3VUqy3-W-151" value="" style="group" vertex="1" connectable="0" parent="-G7ro0YwcqrA3VUqy3-W-152">
          <mxGeometry x="10" y="10" width="304" height="295" as="geometry" />
        </mxCell>
        <mxCell id="KeL7FeTLeQINifIP4qkp-547" value="&amp;lt;&amp;lt;subsystem&amp;gt;&amp;gt;&lt;br&gt;WEvent" style="text;strokeColor=none;align=center;fillColor=none;html=1;verticalAlign=middle;whiteSpace=wrap;rounded=0;" parent="-G7ro0YwcqrA3VUqy3-W-151" vertex="1">
          <mxGeometry width="95" height="40" as="geometry" />
        </mxCell>
        <mxCell id="KeL7FeTLeQINifIP4qkp-548" value="WResourceRest" style="html=1;dropTarget=0;whiteSpace=wrap;fillColor=#CCFFFF;" parent="-G7ro0YwcqrA3VUqy3-W-151" vertex="1">
          <mxGeometry x="30" y="152" width="170" height="40" as="geometry" />
        </mxCell>
        <mxCell id="KeL7FeTLeQINifIP4qkp-549" value="" style="shape=module;jettyWidth=8;jettyHeight=4;" parent="KeL7FeTLeQINifIP4qkp-548" vertex="1">
          <mxGeometry x="1" width="20" height="20" relative="1" as="geometry">
            <mxPoint x="-27" y="7" as="offset" />
          </mxGeometry>
        </mxCell>
        <mxCell id="KeL7FeTLeQINifIP4qkp-550" value="WResourceClick" style="html=1;dropTarget=0;whiteSpace=wrap;fillColor=#CCCC00;" parent="-G7ro0YwcqrA3VUqy3-W-151" vertex="1">
          <mxGeometry x="30" y="105" width="170" height="40" as="geometry" />
        </mxCell>
        <mxCell id="KeL7FeTLeQINifIP4qkp-551" value="" style="shape=module;jettyWidth=8;jettyHeight=4;" parent="KeL7FeTLeQINifIP4qkp-550" vertex="1">
          <mxGeometry x="1" width="20" height="20" relative="1" as="geometry">
            <mxPoint x="-27" y="7" as="offset" />
          </mxGeometry>
        </mxCell>
        <mxCell id="KeL7FeTLeQINifIP4qkp-552" value="" style="whiteSpace=wrap;html=1;" parent="-G7ro0YwcqrA3VUqy3-W-151" vertex="1">
          <mxGeometry x="274" y="152" width="30" height="40" as="geometry" />
        </mxCell>
        <mxCell id="KeL7FeTLeQINifIP4qkp-553" value="WHall" style="html=1;dropTarget=0;whiteSpace=wrap;fillColor=#FFFFCC;" parent="-G7ro0YwcqrA3VUqy3-W-151" vertex="1">
          <mxGeometry x="30" y="57" width="170" height="40" as="geometry" />
        </mxCell>
        <mxCell id="KeL7FeTLeQINifIP4qkp-554" value="" style="shape=module;jettyWidth=8;jettyHeight=4;" parent="KeL7FeTLeQINifIP4qkp-553" vertex="1">
          <mxGeometry x="1" width="20" height="20" relative="1" as="geometry">
            <mxPoint x="-27" y="7" as="offset" />
          </mxGeometry>
        </mxCell>
        <mxCell id="KeL7FeTLeQINifIP4qkp-556" value="" style="endArrow=open;endSize=12;dashed=1;html=1;rounded=0;" parent="-G7ro0YwcqrA3VUqy3-W-151" edge="1">
          <mxGeometry width="160" relative="1" as="geometry">
            <mxPoint x="200" y="171.5" as="sourcePoint" />
            <mxPoint x="275" y="171.5" as="targetPoint" />
          </mxGeometry>
        </mxCell>
        <mxCell id="-G7ro0YwcqrA3VUqy3-W-146" value="" style="group" vertex="1" connectable="0" parent="-G7ro0YwcqrA3VUqy3-W-151">
          <mxGeometry x="30" y="192" width="170" height="103" as="geometry" />
        </mxCell>
        <mxCell id="-G7ro0YwcqrA3VUqy3-W-147" value="AppConfig" style="html=1;dropTarget=0;whiteSpace=wrap;" vertex="1" parent="-G7ro0YwcqrA3VUqy3-W-146">
          <mxGeometry y="63" width="170" height="40" as="geometry" />
        </mxCell>
        <mxCell id="-G7ro0YwcqrA3VUqy3-W-148" value="" style="shape=module;jettyWidth=8;jettyHeight=4;" vertex="1" parent="-G7ro0YwcqrA3VUqy3-W-147">
          <mxGeometry x="1" width="20" height="20" relative="1" as="geometry">
            <mxPoint x="-27" y="7" as="offset" />
          </mxGeometry>
        </mxCell>
        <mxCell id="-G7ro0YwcqrA3VUqy3-W-149" value="" style="rounded=0;orthogonalLoop=1;jettySize=auto;html=1;endArrow=oval;endFill=0;sketch=0;sourcePerimeterSpacing=0;targetPerimeterSpacing=0;endSize=10;exitX=0.5;exitY=0;exitDx=0;exitDy=0;" edge="1" parent="-G7ro0YwcqrA3VUqy3-W-146" source="-G7ro0YwcqrA3VUqy3-W-147">
          <mxGeometry relative="1" as="geometry">
            <mxPoint x="84.5" y="73" as="sourcePoint" />
            <mxPoint x="84.5" y="38" as="targetPoint" />
          </mxGeometry>
        </mxCell>
        <mxCell id="-G7ro0YwcqrA3VUqy3-W-150" value="" style="rounded=0;orthogonalLoop=1;jettySize=auto;html=1;endArrow=halfCircle;endFill=0;endSize=6;strokeWidth=1;sketch=0;exitX=0.5;exitY=1;exitDx=0;exitDy=0;" edge="1" parent="-G7ro0YwcqrA3VUqy3-W-146">
          <mxGeometry relative="1" as="geometry">
            <mxPoint x="84.5" as="sourcePoint" />
            <mxPoint x="85" y="38" as="targetPoint" />
            <Array as="points">
              <mxPoint x="84.5" />
            </Array>
          </mxGeometry>
        </mxCell>
        <mxCell id="-G7ro0YwcqrA3VUqy3-W-145" style="edgeStyle=orthogonalEdgeStyle;rounded=0;orthogonalLoop=1;jettySize=auto;html=1;exitX=0.5;exitY=1;exitDx=0;exitDy=0;" edge="1" parent="-G7ro0YwcqrA3VUqy3-W-152" source="KeL7FeTLeQINifIP4qkp-545" target="KeL7FeTLeQINifIP4qkp-545">
          <mxGeometry relative="1" as="geometry" />
        </mxCell>
        <mxCell id="-G7ro0YwcqrA3VUqy3-W-154" value="" style="group" vertex="1" connectable="0" parent="1">
          <mxGeometry x="-340" y="-650" width="314" height="290" as="geometry" />
        </mxCell>
        <mxCell id="KeL7FeTLeQINifIP4qkp-258" value="" style="html=1;dropTarget=0;whiteSpace=wrap;fillColor=#FFFFCC;" parent="-G7ro0YwcqrA3VUqy3-W-154" vertex="1">
          <mxGeometry width="300" height="290" as="geometry" />
        </mxCell>
        <mxCell id="KeL7FeTLeQINifIP4qkp-259" value="" style="shape=module;jettyWidth=8;jettyHeight=4;" parent="KeL7FeTLeQINifIP4qkp-258" vertex="1">
          <mxGeometry x="1" width="20" height="20" relative="1" as="geometry">
            <mxPoint x="-27" y="7" as="offset" />
          </mxGeometry>
        </mxCell>
        <mxCell id="KeL7FeTLeQINifIP4qkp-286" value="WResourceRest" style="html=1;dropTarget=0;whiteSpace=wrap;fillColor=#CCFFFF;" parent="-G7ro0YwcqrA3VUqy3-W-154" vertex="1">
          <mxGeometry x="40" y="122" width="170" height="40" as="geometry" />
        </mxCell>
        <mxCell id="KeL7FeTLeQINifIP4qkp-287" value="" style="shape=module;jettyWidth=8;jettyHeight=4;" parent="KeL7FeTLeQINifIP4qkp-286" vertex="1">
          <mxGeometry x="1" width="20" height="20" relative="1" as="geometry">
            <mxPoint x="-27" y="7" as="offset" />
          </mxGeometry>
        </mxCell>
        <mxCell id="KeL7FeTLeQINifIP4qkp-288" value="WResourceClick" style="html=1;dropTarget=0;whiteSpace=wrap;fillColor=#CCCC00;" parent="-G7ro0YwcqrA3VUqy3-W-154" vertex="1">
          <mxGeometry x="40" y="75" width="170" height="40" as="geometry" />
        </mxCell>
        <mxCell id="KeL7FeTLeQINifIP4qkp-289" value="" style="shape=module;jettyWidth=8;jettyHeight=4;" parent="KeL7FeTLeQINifIP4qkp-288" vertex="1">
          <mxGeometry x="1" width="20" height="20" relative="1" as="geometry">
            <mxPoint x="-27" y="7" as="offset" />
          </mxGeometry>
        </mxCell>
        <mxCell id="KeL7FeTLeQINifIP4qkp-497" value="" style="whiteSpace=wrap;html=1;" parent="-G7ro0YwcqrA3VUqy3-W-154" vertex="1">
          <mxGeometry x="284" y="122" width="30" height="40" as="geometry" />
        </mxCell>
        <mxCell id="KeL7FeTLeQINifIP4qkp-498" value="" style="endArrow=open;endSize=12;dashed=1;html=1;rounded=0;" parent="-G7ro0YwcqrA3VUqy3-W-154" edge="1">
          <mxGeometry width="160" relative="1" as="geometry">
            <mxPoint x="209" y="141.5" as="sourcePoint" />
            <mxPoint x="284" y="141.5" as="targetPoint" />
          </mxGeometry>
        </mxCell>
        <mxCell id="-G7ro0YwcqrA3VUqy3-W-138" value="" style="group" vertex="1" connectable="0" parent="-G7ro0YwcqrA3VUqy3-W-154">
          <mxGeometry x="40" y="162" width="170" height="103" as="geometry" />
        </mxCell>
        <mxCell id="-G7ro0YwcqrA3VUqy3-W-104" value="AppConfig" style="html=1;dropTarget=0;whiteSpace=wrap;" vertex="1" parent="-G7ro0YwcqrA3VUqy3-W-138">
          <mxGeometry y="63" width="170" height="40" as="geometry" />
        </mxCell>
        <mxCell id="-G7ro0YwcqrA3VUqy3-W-105" value="" style="shape=module;jettyWidth=8;jettyHeight=4;" vertex="1" parent="-G7ro0YwcqrA3VUqy3-W-104">
          <mxGeometry x="1" width="20" height="20" relative="1" as="geometry">
            <mxPoint x="-27" y="7" as="offset" />
          </mxGeometry>
        </mxCell>
        <mxCell id="-G7ro0YwcqrA3VUqy3-W-108" value="" style="rounded=0;orthogonalLoop=1;jettySize=auto;html=1;endArrow=oval;endFill=0;sketch=0;sourcePerimeterSpacing=0;targetPerimeterSpacing=0;endSize=10;exitX=0.5;exitY=0;exitDx=0;exitDy=0;" edge="1" parent="-G7ro0YwcqrA3VUqy3-W-138" source="-G7ro0YwcqrA3VUqy3-W-104">
          <mxGeometry relative="1" as="geometry">
            <mxPoint x="84.5" y="73" as="sourcePoint" />
            <mxPoint x="84.5" y="38" as="targetPoint" />
          </mxGeometry>
        </mxCell>
        <mxCell id="-G7ro0YwcqrA3VUqy3-W-109" value="" style="rounded=0;orthogonalLoop=1;jettySize=auto;html=1;endArrow=halfCircle;endFill=0;endSize=6;strokeWidth=1;sketch=0;exitX=0.5;exitY=1;exitDx=0;exitDy=0;" edge="1" parent="-G7ro0YwcqrA3VUqy3-W-138">
          <mxGeometry relative="1" as="geometry">
            <mxPoint x="84.5" as="sourcePoint" />
            <mxPoint x="85" y="38" as="targetPoint" />
            <Array as="points">
              <mxPoint x="84.5" />
            </Array>
          </mxGeometry>
        </mxCell>
        <mxCell id="-G7ro0YwcqrA3VUqy3-W-155" value="&amp;lt;&amp;lt;subsystem&amp;gt;&amp;gt;&lt;br&gt;WCalendar" style="text;strokeColor=none;align=center;fillColor=none;html=1;verticalAlign=middle;whiteSpace=wrap;rounded=0;" vertex="1" parent="-G7ro0YwcqrA3VUqy3-W-154">
          <mxGeometry x="10" y="10" width="95" height="40" as="geometry" />
        </mxCell>
        <mxCell id="KeL7FeTLeQINifIP4qkp-561" value="" style="endArrow=open;endSize=12;dashed=1;html=1;rounded=0;entryX=0;entryY=0;entryDx=0;entryDy=0;" parent="1" source="KeL7FeTLeQINifIP4qkp-497" target="KeL7FeTLeQINifIP4qkp-560" edge="1">
          <mxGeometry x="0.0029" width="160" relative="1" as="geometry">
            <mxPoint x="190" y="-500" as="sourcePoint" />
            <mxPoint x="350" y="-500" as="targetPoint" />
            <mxPoint as="offset" />
          </mxGeometry>
        </mxCell>
        <mxCell id="KeL7FeTLeQINifIP4qkp-562" value="" style="endArrow=open;endSize=12;dashed=1;html=1;rounded=0;exitX=1;exitY=0.5;exitDx=0;exitDy=0;entryX=0;entryY=0.5;entryDx=0;entryDy=0;" parent="1" source="KeL7FeTLeQINifIP4qkp-509" target="KeL7FeTLeQINifIP4qkp-560" edge="1">
          <mxGeometry x="0.0029" width="160" relative="1" as="geometry">
            <mxPoint x="-16" y="-480" as="sourcePoint" />
            <mxPoint x="146" y="-290" as="targetPoint" />
            <mxPoint as="offset" />
          </mxGeometry>
        </mxCell>
        <mxCell id="KeL7FeTLeQINifIP4qkp-563" value="" style="endArrow=open;endSize=12;dashed=1;html=1;rounded=0;exitX=1;exitY=0.5;exitDx=0;exitDy=0;entryX=-0.006;entryY=0.887;entryDx=0;entryDy=0;entryPerimeter=0;" parent="1" source="KeL7FeTLeQINifIP4qkp-552" target="KeL7FeTLeQINifIP4qkp-560" edge="1">
          <mxGeometry x="0.0029" width="160" relative="1" as="geometry">
            <mxPoint x="-6" y="-470" as="sourcePoint" />
            <mxPoint x="156" y="-280" as="targetPoint" />
            <mxPoint as="offset" />
          </mxGeometry>
        </mxCell>
        <mxCell id="KeL7FeTLeQINifIP4qkp-564" value="" style="endArrow=open;endSize=12;dashed=1;html=1;rounded=0;exitX=1;exitY=0.5;exitDx=0;exitDy=0;entryX=0.25;entryY=1;entryDx=0;entryDy=0;" parent="1" source="KeL7FeTLeQINifIP4qkp-533" target="KeL7FeTLeQINifIP4qkp-560" edge="1">
          <mxGeometry x="0.0029" width="160" relative="1" as="geometry">
            <mxPoint x="-20" y="80" as="sourcePoint" />
            <mxPoint x="166" y="-270" as="targetPoint" />
            <mxPoint as="offset" />
          </mxGeometry>
        </mxCell>
        <mxCell id="-G7ro0YwcqrA3VUqy3-W-261" value="CLIENT" style="text;strokeColor=none;align=center;fillColor=none;html=1;verticalAlign=middle;whiteSpace=wrap;rounded=0;" vertex="1" parent="1">
          <mxGeometry x="-376" y="-685" width="60" height="30" as="geometry" />
        </mxCell>
      </root>
    </mxGraphModel>
  </diagram>
</mxfile>
